<?xml version="1.0" encoding="utf-8"?><svg xml:space="preserve" viewBox="0 0 100 100" y="0" x="0" xmlns="http://www.w3.org/2000/svg" id="圖層_1" version="1.1" width="200px" height="200px" xmlns:xlink="http://www.w3.org/1999/xlink" style="width:100%;height:100%;background-size:initial;background-repeat-y:initial;background-repeat-x:initial;background-position-y:initial;background-position-x:initial;background-origin:initial;background-color:initial;background-clip:initial;background-attachment:initial;animation-play-state:paused" ><g class="ldl-scale" style="transform-origin:50% 50%;transform:rotate(0deg) scale(0.8, 0.8);animation-play-state:paused" ><path fill="#fff" d="M55.905 85.508c-.197.033-.393.068-.591.097.198-.029.394-.065.591-.097z" style="fill:rgb(255, 255, 255);animation-play-state:paused" ></path>
<path fill="#fff" d="M44.686 85.605c-.198-.029-.394-.065-.591-.097.197.032.393.068.591.097z" style="fill:rgb(255, 255, 255);animation-play-state:paused" ></path>
<path fill="#fff" d="M54.155 85.753c-.199.023-.396.05-.595.07.199-.02.396-.047.595-.07z" style="fill:rgb(255, 255, 255);animation-play-state:paused" ></path>
<path fill="#fff" d="M42.948 85.302c-.186-.037-.37-.078-.554-.118.185.04.369.081.554.118z" style="fill:rgb(255, 255, 255);animation-play-state:paused" ></path>
<path fill="#fff" d="M34.451 82.465l-.061-.029.061.029z" style="fill:rgb(255, 255, 255);animation-play-state:paused" ></path>
<path fill="#fff" d="M50 14c-19.851 0-36 16.149-36 36 0 10.681 4.68 20.285 12.092 26.884 1.816-5.795 5.786-10.627 10.962-13.595-4.455-3.712-7.293-9.299-7.293-15.551C29.762 36.561 38.823 27.5 50 27.5s20.238 9.061 20.238 20.238c0 6.252-2.838 11.839-7.293 15.551 5.176 2.968 9.146 7.799 10.962 13.595C81.32 70.285 86 60.681 86 50c0-19.851-16.149-36-36-36z" style="fill:rgb(255, 255, 255);animation-play-state:paused" ></path>
<path fill="#fff" d="M36.151 83.226l-.229-.095.229.095z" style="fill:rgb(255, 255, 255);animation-play-state:paused" ></path>
<path fill="#fff" d="M39.525 84.441z" style="fill:rgb(255, 255, 255);animation-play-state:paused" ></path>
<path fill="#fff" d="M41.228 84.914c-.168-.042-.334-.087-.501-.131.166.045.333.089.501.131z" style="fill:rgb(255, 255, 255);animation-play-state:paused" ></path>
<path fill="#fff" d="M57.606 85.184c-.185.04-.369.081-.554.118.185-.037.369-.078.554-.118z" style="fill:rgb(255, 255, 255);animation-play-state:paused" ></path>
<path fill="#fff" d="M37.834 83.88l-.343-.124.343.124z" style="fill:rgb(255, 255, 255);animation-play-state:paused" ></path>
<path fill="#fff" d="M65.61 82.436l-.061.029.061-.029z" style="fill:rgb(255, 255, 255);animation-play-state:paused" ></path>
<path fill="#fff" d="M64.078 83.131l-.228.095.228-.095z" style="fill:rgb(255, 255, 255);animation-play-state:paused" ></path>
<path fill="#fff" d="M60.908 84.306z" style="fill:rgb(255, 255, 255);animation-play-state:paused" ></path>
<path fill="#fff" d="M59.273 84.783c-.167.044-.334.089-.501.131.168-.042.335-.086.501-.131z" style="fill:rgb(255, 255, 255);animation-play-state:paused" ></path>
<path fill="#fff" d="M62.508 83.756l-.342.124.342-.124z" style="fill:rgb(255, 255, 255);animation-play-state:paused" ></path>
<path fill="#333" d="M62.166 83.88z" style="fill:rgb(51, 51, 51);animation-play-state:paused" ></path>
<path fill="#333" d="M55.314 85.605z" style="fill:rgb(51, 51, 51);animation-play-state:paused" ></path>
<path fill="#333" d="M58.772 84.914z" style="fill:rgb(51, 51, 51);animation-play-state:paused" ></path>
<path fill="#333" d="M26.086 76.901a36.107 36.107 0 0 0 8.304 5.535 36.126 36.126 0 0 1-8.298-5.552c-.001.006-.004.011-.006.017z" style="fill:rgb(51, 51, 51);animation-play-state:paused" ></path>
<path fill="#333" d="M57.052 85.302z" style="fill:rgb(51, 51, 51);animation-play-state:paused" ></path>
<path fill="#333" d="M60.475 84.441z" style="fill:rgb(51, 51, 51);animation-play-state:paused" ></path>
<path fill="#333" d="M63.849 83.226z" style="fill:rgb(51, 51, 51);animation-play-state:paused" ></path>
<path fill="#333" d="M73.914 76.901l-.006-.017a36.104 36.104 0 0 1-8.298 5.552 36.107 36.107 0 0 0 8.304-5.535z" style="fill:rgb(51, 51, 51);animation-play-state:paused" ></path>
<path fill="#333" d="M44.095 85.508z" style="fill:rgb(51, 51, 51);animation-play-state:paused" ></path>
<path fill="#333" d="M35.922 83.131z" style="fill:rgb(51, 51, 51);animation-play-state:paused" ></path>
<path fill="#333" d="M39.092 84.306z" style="fill:rgb(51, 51, 51);animation-play-state:paused" ></path>
<path fill="#333" d="M37.491 83.755z" style="fill:rgb(51, 51, 51);animation-play-state:paused" ></path>
<path fill="#333" d="M42.394 85.184z" style="fill:rgb(51, 51, 51);animation-play-state:paused" ></path>
<path fill="#333" d="M65.549 82.465z" style="fill:rgb(51, 51, 51);animation-play-state:paused" ></path>
<path fill="#333" d="M40.727 84.783z" style="fill:rgb(51, 51, 51);animation-play-state:paused" ></path>
<path fill="#333" d="M53.56 85.823z" style="fill:rgb(51, 51, 51);animation-play-state:paused" ></path>
<path fill="#333" d="M50 8C26.841 8 8 26.841 8 50s18.841 42 42 42 42-18.841 42-42S73.159 8 50 8zm12.945 55.289c4.455-3.712 7.293-9.299 7.293-15.551C70.238 36.561 61.177 27.5 50 27.5s-20.238 9.061-20.238 20.238c0 6.252 2.838 11.839 7.293 15.551-5.176 2.968-10.964 13.6-10.962 13.595C18.68 70.285 14 60.681 14 50c0-19.851 16.149-36 36-36s36 16.149 36 36c0 10.681-4.68 20.285-12.092 26.884.001.006-5.787-10.627-10.963-13.595z" style="fill:rgb(51, 51, 51);animation-play-state:paused" ></path>
<path fill="#fff" d="M42.211 41.54l-2.82-.869a12.672 12.672 0 0 0-1.891 4.563l2.608 1.378c-.042.37-.068.745-.068 1.126 0 .381.026.756.068 1.126L37.5 50.243a12.69 12.69 0 0 0 1.891 4.563l2.82-.869a9.976 9.976 0 0 0 1.591 1.591l-.869 2.82c1.36.908 2.903 1.56 4.563 1.891l1.378-2.608c.37.042.745.068 1.126.068s.756-.026 1.126-.068l1.378 2.608a12.69 12.69 0 0 0 4.563-1.891l-.869-2.82a9.976 9.976 0 0 0 1.591-1.591l2.82.869a12.672 12.672 0 0 0 1.891-4.563l-2.608-1.378c.042-.37.068-.745.068-1.126 0-.381-.026-.756-.068-1.126l2.608-1.378a12.69 12.69 0 0 0-1.891-4.563l-2.82.869a9.976 9.976 0 0 0-1.591-1.591l.869-2.82a12.672 12.672 0 0 0-4.563-1.891l-1.378 2.608c-.37-.042-.745-.068-1.126-.068s-.756.026-1.126.068l-1.378-2.608a12.69 12.69 0 0 0-4.563 1.891l.869 2.82a9.97 9.97 0 0 0-1.591 1.59zM50 40.567a7.17 7.17 0 1 1 0 14.342 7.17 7.17 0 0 1 0-14.342z" style="fill:rgb(255, 255, 255);animation-play-state:paused" ></path>
<metadata xmlns:d="https://loading.io/stock/" style="animation-play-state:paused" ><d:name style="animation-play-state:paused" >superuser</d:name>


<d:tags style="animation-play-state:paused" >superuser,administrator,manager,master,avatar,account,profile,customer,guest</d:tags>


<d:license style="animation-play-state:paused" >by</d:license>


<d:slug style="animation-play-state:paused" >sw8oea</d:slug></metadata></g><!-- generated by https://loading.io/ --></svg>