<?xml version="1.0" encoding="utf-8"?><svg xml:space="preserve" viewBox="0 0 100 100" y="0" x="0" xmlns="http://www.w3.org/2000/svg" id="圖層_1" version="1.1" width="200px" height="200px" xmlns:xlink="http://www.w3.org/1999/xlink" style="width:100%;height:100%;background-size:initial;background-repeat-y:initial;background-repeat-x:initial;background-position-y:initial;background-position-x:initial;background-origin:initial;background-color:initial;background-clip:initial;background-attachment:initial;animation-play-state:paused" ><g class="ldl-scale" style="transform-origin:50% 50%;transform:rotate(0deg) scale(0.8, 0.8);animation-play-state:paused" ><path d="M60.27 43.674l-9.318 17.608c-.365.975-1.54.975-1.905 0L39.73 43.674C32.473 47.259 27.5 54.505 27.5 62.88v14.467c0 2.984 2.52 5.403 5.628 5.403h33.745c3.108 0 5.628-2.419 5.628-5.403V62.88c-.001-8.375-4.974-15.621-12.231-19.206z" style="animation-play-state:paused" ></path>
<path fill="#ccc" d="M50.953 61.282l9.318-17.608c-3.081-1.522-6.567-2.397-10.27-2.397s-7.189.875-10.27 2.397l9.318 17.608c.363.975 1.539.975 1.904 0z" style="fill:rgb(204, 204, 204);animation-play-state:paused" ></path>
<circle fill="#c7b299" r="14.513" cy="31.763" cx="50" style="fill:rgb(199, 178, 153);animation-play-state:paused" ></circle>
<path stroke-miterlimit="10" stroke="#754c24" fill="none" d="M40.917 30.25l.139 1.246a1.55 1.55 0 0 0 1.541 1.379h3.808c.79 0 1.453-.594 1.541-1.379l.139-1.246" style="stroke:rgb(117, 76, 36);animation-play-state:paused" ></path>
<path stroke-miterlimit="10" stroke="#754c24" fill="none" d="M48.083 30.25l.1-.904a1.55 1.55 0 0 0-1.541-1.721h-4.286a1.55 1.55 0 0 0-1.541 1.721l.1.904" style="stroke:rgb(117, 76, 36);animation-play-state:paused" ></path>
<path stroke-miterlimit="10" stroke="#754c24" fill="none" d="M59.083 30.25l.1-.904a1.55 1.55 0 0 0-1.541-1.721h-4.286a1.55 1.55 0 0 0-1.541 1.721l.1.904" style="stroke:rgb(117, 76, 36);animation-play-state:paused" ></path>
<path stroke-miterlimit="10" stroke="#754c24" fill="none" d="M51.917 30.25l.139 1.246a1.55 1.55 0 0 0 1.541 1.379h3.808c.79 0 1.453-.594 1.541-1.379l.139-1.246" style="stroke:rgb(117, 76, 36);animation-play-state:paused" ></path>
<path d="M63 30.25h-3.917" stroke-miterlimit="10" stroke="#754c24" fill="none" style="stroke:rgb(117, 76, 36);animation-play-state:paused" ></path>
<path d="M40.917 30.25h-3.542" stroke-miterlimit="10" stroke="#754c24" fill="none" style="stroke:rgb(117, 76, 36);animation-play-state:paused" ></path>
<path d="M51.917 30.25h-3.834" stroke-miterlimit="10" stroke="#754c24" fill="none" style="stroke:rgb(117, 76, 36);animation-play-state:paused" ></path>
<path fill="#c7b299" d="M54.524 77.102l-10.038-4.226a1.994 1.994 0 0 1-1.064-2.61l5.709-13.561a1.994 1.994 0 0 1 2.61-1.064l10.038 4.226a1.994 1.994 0 0 1 1.064 2.61l-5.709 13.561a1.992 1.992 0 0 1-2.61 1.064z" style="fill:rgb(199, 178, 153);animation-play-state:paused" ></path>
<g style="animation-play-state:paused" ><path fill="#754c24" d="M36.656 70.684L63 58 38.094 73.316a1.5 1.5 0 1 1-1.438-2.632z" style="fill:rgb(117, 76, 36);animation-play-state:paused" ></path></g>
<metadata xmlns:d="https://loading.io/stock/" style="animation-play-state:paused" ><d:name style="animation-play-state:paused" >teacher</d:name>
<d:tags style="animation-play-state:paused" >professor,trainer,instructor,speaker,lecturer,teacher,people</d:tags>
<d:license style="animation-play-state:paused" >pro</d:license>
<d:slug style="animation-play-state:paused" >ss544w</d:slug></metadata></g><!-- generated by https://loading.io/ --></svg>